<?xml version="1.0" encoding="UTF-8" standalone="no"?>
<!DOCTYPE svg PUBLIC "-//W3C//DTD SVG 1.1//EN" "http://www.w3.org/Graphics/SVG/1.1/DTD/svg11.dtd">
<svg xmlns="http://www.w3.org/2000/svg" version="1.1" viewBox="0.00 0.00 735.00 339.00">
<g stroke-width="2.00" fill="none" stroke-linecap="butt">
<path stroke="#3c7dc8" vector-effect="non-scaling-stroke" d="
  M 656.47 85.54
  L 638.23 82.41"
/>
<path stroke="#3b86d4" vector-effect="non-scaling-stroke" d="
  M 638.23 82.41
  C 636.90 80.86 635.82 79.91 634.97 79.55
  C 632.40 78.46 630.01 77.09 627.80 75.45
  C 624.17 72.76 621.96 71.17 621.18 70.66
  C 617.55 68.29 614.03 65.68 610.61 62.85"
/>
<path stroke="#2572c8" vector-effect="non-scaling-stroke" d="
  M 638.23 82.41
  C 635.47 82.18 632.70 82.08 629.93 82.13
  C 629.78 82.14 629.64 82.20 629.52 82.31
  C 629.41 82.42 629.37 82.55 629.42 82.71
  C 629.49 82.94 629.62 83.11 629.82 83.22
  L 649.06 94.01"
/>
<path stroke="#2572c8" vector-effect="non-scaling-stroke" d="
  M 703.93 193.76
  C 701.77 193.58 699.68 192.78 697.65 191.35
  C 694.32 189.01 690.98 186.68 687.63 184.36
  C 685.10 182.60 681.85 180.17 677.86 177.06
  C 674.57 174.49 671.18 172.01 667.69 169.60"
/>
<path stroke="#3b86d4" vector-effect="non-scaling-stroke" d="
  M 667.69 169.60
  C 673.54 164.44 678.16 159.67 681.11 152.09
  C 682.63 148.18 681.05 143.78 677.87 141.54
  C 673.81 138.69 668.56 136.67 662.12 135.46
  C 653.61 133.87 645.14 132.30 636.72 130.75
  C 627.45 129.04 619.46 127.02 612.76 124.69
  C 608.51 123.21 601.17 119.30 604.41 113.69
  C 606.16 110.66 608.37 107.49 611.04 104.20
  C 611.93 103.09 612.36 101.80 612.32 100.32
  C 612.17 95.56 607.33 93.39 603.23 92.19
  C 597.16 90.42 590.86 89.09 584.34 88.20
  C 576.51 87.14 570.64 86.49 566.75 86.24
  C 555.72 85.53 545.17 85.64 535.09 86.59"
/>
<path stroke="#2572c8" vector-effect="non-scaling-stroke" d="
  M 535.09 86.59
  C 533.79 84.64 532.00 83.02 529.73 81.73
  C 526.68 80.00 524.87 78.94 524.30 78.53
  C 518.95 74.73 513.22 71.02 507.11 67.39
  C 506.94 67.29 506.80 67.14 506.68 66.93
  C 506.52 66.66 506.29 66.48 505.99 66.39
  C 505.44 66.22 505.11 65.79 504.99 65.08"
/>
<path stroke="#3c7dc8" vector-effect="non-scaling-stroke" d="
  M 535.09 86.59
  L 528.55 87.66"
/>
<path stroke="#3771c4" vector-effect="non-scaling-stroke" d="
  M 528.55 87.66
  L 509.76 92.09
  C 508.70 92.34 508.48 93.75 509.41 94.31
  C 514.92 97.62 520.12 100.98 525.03 104.40
  C 527.45 106.09 530.13 107.29 532.45 109.05
  C 534.15 110.34 535.89 111.57 537.67 112.72
  C 546.29 118.33 554.94 123.96 563.63 129.63
  C 564.46 130.17 565.00 131.10 565.26 132.41"
/>
<path stroke="#2d61ab" vector-effect="non-scaling-stroke" d="
  M 555.84 139.94
  C 550.61 136.10 545.25 132.50 539.74 129.14
  C 538.42 128.34 537.28 127.13 535.90 126.35
  C 532.20 124.27 528.31 121.74 524.23 118.77
  C 520.14 115.80 515.35 112.81 509.86 109.80
  C 508.18 108.89 506.64 107.67 505.12 106.45
  C 504.24 105.74 502.97 105.10 501.32 104.52
  C 499.13 103.75 497.15 102.69 495.40 101.35"
/>
<path stroke="#85aad5" vector-effect="non-scaling-stroke" d="
  M 495.40 101.35
  C 501.04 97.92 505.64 93.64 509.20 88.49
  C 509.99 87.35 510.33 86.31 510.21 85.36
  C 510.12 84.67 509.60 84.11 508.91 83.98
  C 494.64 81.37 483.50 85.41 475.49 96.10"
/>
<path stroke="#2d61ab" vector-effect="non-scaling-stroke" d="
  M 475.49 96.10
  L 464.97 88.24"
/>
<path stroke="#3c7dc8" vector-effect="non-scaling-stroke" d="
  M 667.69 169.60
  L 663.48 173.79"
/>
<path stroke="#4d84d0" vector-effect="non-scaling-stroke" d="
  M 663.48 173.79
  C 660.50 171.43 655.79 168.14 649.34 163.92
  C 647.45 162.68 645.78 162.03 644.35 161.98"
/>
<path stroke="#9abee1" vector-effect="non-scaling-stroke" d="
  M 644.35 161.98
  C 642.86 156.49 639.83 151.90 635.25 148.21
  C 628.50 142.76 620.13 139.69 611.50 137.70
  C 606.84 136.63 602.30 136.17 597.87 136.34"
/>
<path stroke="#4d84d0" vector-effect="non-scaling-stroke" d="
  M 597.87 136.34
  C 595.86 134.13 593.58 132.30 591.01 130.83
  C 587.76 128.97 585.69 127.72 584.79 127.08
  C 579.40 123.21 574.13 119.69 569.00 116.53
  C 567.39 115.54 565.97 114.66 564.74 113.90
  C 561.08 111.64 557.40 109.34 553.71 107.01
  C 550.74 105.13 547.49 103.01 543.97 100.64
  C 541.24 98.80 537.98 96.71 534.17 94.36
  C 531.99 93.01 530.12 90.78 528.55 87.66"
/>
<path stroke="#2d61ab" vector-effect="non-scaling-stroke" d="
  M 701.92 220.43
  C 699.36 220.28 697.64 219.95 696.75 219.43
  C 693.29 217.39 687.45 213.22 679.23 206.91"
/>
<path stroke="#96b2dd" vector-effect="non-scaling-stroke" d="
  M 597.87 136.34
  C 593.78 137.29 590.24 138.35 587.27 139.51
  C 583.74 140.88 581.30 142.76 579.94 145.14"
/>
<path stroke="#3e68b3" vector-effect="non-scaling-stroke" d="
  M 576.09 149.72
  L 559.78 138.91"
/>
<path stroke="#96b2dd" vector-effect="non-scaling-stroke" d="
  M 566.83 132.58
  L 572.52 129.22
  C 574.13 128.27 574.04 128.08 572.26 128.63
  C 570.67 129.12 568.97 129.93 567.16 131.05
  C 567.01 131.14 566.92 131.28 566.89 131.46
  C 566.88 131.56 566.89 131.64 566.94 131.71"
/>
<path stroke="#8ba2c4" vector-effect="non-scaling-stroke" d="
  M 511.97 151.66
  C 512.01 151.46 512.03 151.25 512.03 151.04
  C 512.04 150.81 511.99 150.60 511.88 150.39
  C 509.39 145.44 507.56 141.08 506.37 137.32
  C 505.44 134.37 505.17 130.61 505.55 126.04
  C 505.90 121.75 501.23 119.93 497.73 119.64
  C 484.82 118.56 472.26 121.83 460.17 126.40
  C 455.93 128.01 452.28 130.02 449.23 132.45
  C 445.40 135.49 442.77 139.40 441.36 144.17"
/>
<path stroke="#8ba2c4" vector-effect="non-scaling-stroke" d="
  M 495.40 101.35
  C 489.00 104.30 482.17 105.20 474.90 104.05
  C 469.35 103.17 473.84 98.24 475.49 96.10"
/>
<path stroke="#96b2dd" vector-effect="non-scaling-stroke" d="
  M 644.35 161.98
  C 645.58 167.82 646.95 173.55 647.77 179.35
  C 648.84 186.97 649.63 194.54 657.73 197.98
  C 660.65 199.21 664.56 199.47 669.45 198.74"
/>
<path stroke="#85aad5" vector-effect="non-scaling-stroke" d="
  M 669.45 198.74
  C 675.06 197.37 678.32 200.09 679.23 206.91"
/>
<path stroke="#8ba2c4" vector-effect="non-scaling-stroke" d="
  M 679.23 206.91
  C 679.33 210.70 678.79 214.26 677.60 217.57
  C 677.22 218.62 677.64 219.79 678.59 220.37
  C 679.61 221.00 680.52 221.80 681.33 222.75"
/>
<path stroke="#85aad5" vector-effect="non-scaling-stroke" d="
  M 681.33 222.75
  C 680.22 222.16 677.52 221.03 673.22 219.34
  C 671.07 218.49 669.54 217.30 668.63 215.75"
/>
<path stroke="#3771c4" vector-effect="non-scaling-stroke" d="
  M 663.48 173.79
  C 660.50 177.99 657.74 184.02 660.03 189.01
  C 660.63 190.33 662.09 192.04 664.41 194.14
  C 666.13 195.70 667.81 197.23 669.45 198.74"
/>
<path stroke="#4d6ca1" vector-effect="non-scaling-stroke" d="
  M 694.08 243.54
  C 692.09 245.74 690.02 247.76 687.85 249.61
  C 684.77 252.24 682.39 254.80 680.24 258.09
  C 680.07 258.34 679.77 258.46 679.48 258.39
  C 679.15 258.30 678.92 258.14 678.80 257.89
  C 677.19 254.60 675.15 251.57 672.70 248.82
  C 672.37 248.45 671.80 248.44 671.47 248.80
  C 670.57 249.76 669.85 250.99 669.31 252.50"
/>
<path stroke="#4d6ca1" vector-effect="non-scaling-stroke" d="
  M 623.38 222.88
  C 633.40 227.23 639.94 229.85 642.99 230.76
  C 649.20 232.61 655.53 233.77 662.00 234.23
  C 662.59 234.28 663.20 234.19 663.85 233.98"
/>
<path stroke="#2d61ab" vector-effect="non-scaling-stroke" d="
  M 663.85 233.98
  C 664.29 234.16 664.64 234.29 665.15 234.20
  C 671.03 233.23 676.36 231.41 681.14 228.76
  C 682.28 228.13 683.18 227.19 683.84 225.92
  C 683.99 225.64 683.99 225.30 683.86 225.01
  C 683.31 223.75 682.46 223.00 681.33 222.75"
/>
<path stroke="#4775b3" vector-effect="non-scaling-stroke" d="
  M 663.85 233.98
  C 661.86 229.59 659.27 226.56 656.08 224.89
  C 651.82 222.65 647.39 220.77 643.85 217.40
  C 643.06 216.65 642.27 214.61 641.50 211.30"
/>
</g>
<path fill="#5190d3" d="
  M 656.47 85.54
  L 638.23 82.41
  C 636.90 80.86 635.82 79.91 634.97 79.55
  C 632.40 78.46 630.01 77.09 627.80 75.45
  C 624.17 72.76 621.96 71.17 621.18 70.66
  C 617.55 68.29 614.03 65.68 610.61 62.85
  C 629.67 55.00 649.83 51.32 669.86 55.23
  C 672.20 55.69 674.49 56.50 676.73 57.66
  C 679.92 59.32 683.16 63.82 680.63 67.15
  C 680.10 67.85 678.64 68.83 676.25 70.09
  C 668.61 74.13 662.02 79.28 656.47 85.54
  Z"
/>
<path fill="#247bd4" d="
  M 610.61 62.85
  C 614.03 65.68 617.55 68.29 621.18 70.66
  C 621.96 71.17 624.17 72.76 627.80 75.45
  C 630.01 77.09 632.40 78.46 634.97 79.55
  C 635.82 79.91 636.90 80.86 638.23 82.41
  C 635.47 82.18 632.70 82.08 629.93 82.13
  C 629.78 82.14 629.64 82.20 629.52 82.31
  C 629.41 82.42 629.37 82.55 629.42 82.71
  C 629.49 82.94 629.62 83.11 629.82 83.22
  L 649.06 94.01
  C 656.69 99.62 663.95 106.26 670.84 113.91
  C 691.26 136.63 702.29 163.25 703.93 193.76
  C 701.77 193.58 699.68 192.78 697.65 191.35
  C 694.32 189.01 690.98 186.68 687.63 184.36
  C 685.10 182.60 681.85 180.17 677.86 177.06
  C 674.57 174.49 671.18 172.01 667.69 169.60
  C 673.54 164.44 678.16 159.67 681.11 152.09
  C 682.63 148.18 681.05 143.78 677.87 141.54
  C 673.81 138.69 668.56 136.67 662.12 135.46
  C 653.61 133.87 645.14 132.30 636.72 130.75
  C 627.45 129.04 619.46 127.02 612.76 124.69
  C 608.51 123.21 601.17 119.30 604.41 113.69
  C 606.16 110.66 608.37 107.49 611.04 104.20
  C 611.93 103.09 612.36 101.80 612.32 100.32
  C 612.17 95.56 607.33 93.39 603.23 92.19
  C 597.16 90.42 590.86 89.09 584.34 88.20
  C 576.51 87.14 570.64 86.49 566.75 86.24
  C 555.72 85.53 545.17 85.64 535.09 86.59
  C 533.79 84.64 532.00 83.02 529.73 81.73
  C 526.68 80.00 524.87 78.94 524.30 78.53
  C 518.95 74.73 513.22 71.02 507.11 67.39
  C 506.94 67.29 506.80 67.14 506.68 66.93
  C 506.52 66.66 506.29 66.48 505.99 66.39
  C 505.44 66.22 505.11 65.79 504.99 65.08
  C 537.02 54.27 568.95 54.49 600.76 65.74
  C 601.76 66.10 602.75 66.08 603.74 65.67
  C 606.39 64.58 608.68 63.64 610.61 62.85
  Z"
/>
<path fill="#2669bc" d="
  M 504.99 65.08
  C 505.11 65.79 505.44 66.22 505.99 66.39
  C 506.29 66.48 506.52 66.66 506.68 66.93
  C 506.80 67.14 506.94 67.29 507.11 67.39
  C 513.22 71.02 518.95 74.73 524.30 78.53
  C 524.87 78.94 526.68 80.00 529.73 81.73
  C 532.00 83.02 533.79 84.64 535.09 86.59
  L 528.55 87.66
  L 509.76 92.09
  C 508.70 92.34 508.48 93.75 509.41 94.31
  C 514.92 97.62 520.12 100.98 525.03 104.40
  C 527.45 106.09 530.13 107.29 532.45 109.05
  C 534.15 110.34 535.89 111.57 537.67 112.72
  C 546.29 118.33 554.94 123.96 563.63 129.63
  C 564.46 130.17 565.00 131.10 565.26 132.41
  L 555.84 139.94
  C 550.61 136.10 545.25 132.50 539.74 129.14
  C 538.42 128.34 537.28 127.13 535.90 126.35
  C 532.20 124.27 528.31 121.74 524.23 118.77
  C 520.14 115.80 515.35 112.81 509.86 109.80
  C 508.18 108.89 506.64 107.67 505.12 106.45
  C 504.24 105.74 502.97 105.10 501.32 104.52
  C 499.13 103.75 497.15 102.69 495.40 101.35
  C 501.04 97.92 505.64 93.64 509.20 88.49
  C 509.99 87.35 510.33 86.31 510.21 85.36
  C 510.12 84.67 509.60 84.11 508.91 83.98
  C 494.64 81.37 483.50 85.41 475.49 96.10
  L 464.97 88.24
  C 477.10 77.80 490.44 70.08 504.99 65.08
  Z"
/>
<path fill="#2669bc" d="
  M 638.23 82.41
  L 656.47 85.54
  L 649.06 94.01
  L 629.82 83.22
  C 629.62 83.11 629.49 82.94 629.42 82.71
  C 629.37 82.55 629.41 82.42 629.52 82.31
  C 629.64 82.20 629.78 82.14 629.93 82.13
  C 632.70 82.08 635.47 82.18 638.23 82.41
  Z"
/>
<path fill="#e3ebee" d="
  M 495.40 101.35
  C 489.00 104.30 482.17 105.20 474.90 104.05
  C 469.35 103.17 473.84 98.24 475.49 96.10
  C 483.50 85.41 494.64 81.37 508.91 83.98
  C 509.60 84.11 510.12 84.67 510.21 85.36
  C 510.33 86.31 509.99 87.35 509.20 88.49
  C 505.64 93.64 501.04 97.92 495.40 101.35
  Z"
/>
<path fill="#5190d3" d="
  M 667.69 169.60
  L 663.48 173.79
  C 660.50 171.43 655.79 168.14 649.34 163.92
  C 647.45 162.68 645.78 162.03 644.35 161.98
  C 642.86 156.49 639.83 151.90 635.25 148.21
  C 628.50 142.76 620.13 139.69 611.50 137.70
  C 606.84 136.63 602.30 136.17 597.87 136.34
  C 595.86 134.13 593.58 132.30 591.01 130.83
  C 587.76 128.97 585.69 127.72 584.79 127.08
  C 579.40 123.21 574.13 119.69 569.00 116.53
  C 567.39 115.54 565.97 114.66 564.74 113.90
  C 561.08 111.64 557.40 109.34 553.71 107.01
  C 550.74 105.13 547.49 103.01 543.97 100.64
  C 541.24 98.80 537.98 96.71 534.17 94.36
  C 531.99 93.01 530.12 90.78 528.55 87.66
  L 535.09 86.59
  C 545.17 85.64 555.72 85.53 566.75 86.24
  C 570.64 86.49 576.51 87.14 584.34 88.20
  C 590.86 89.09 597.16 90.42 603.23 92.19
  C 607.33 93.39 612.17 95.56 612.32 100.32
  C 612.36 101.80 611.93 103.09 611.04 104.20
  C 608.37 107.49 606.16 110.66 604.41 113.69
  C 601.17 119.30 608.51 123.21 612.76 124.69
  C 619.46 127.02 627.45 129.04 636.72 130.75
  C 645.14 132.30 653.61 133.87 662.12 135.46
  C 668.56 136.67 673.81 138.69 677.87 141.54
  C 681.05 143.78 682.63 148.18 681.11 152.09
  C 678.16 159.67 673.54 164.44 667.69 169.60
  Z"
/>
<path fill="#4878cc" d="
  M 528.55 87.66
  C 530.12 90.78 531.99 93.01 534.17 94.36
  C 537.98 96.71 541.24 98.80 543.97 100.64
  C 547.49 103.01 550.74 105.13 553.71 107.01
  C 557.40 109.34 561.08 111.64 564.74 113.90
  C 565.97 114.66 567.39 115.54 569.00 116.53
  C 574.13 119.69 579.40 123.21 584.79 127.08
  C 585.69 127.72 587.76 128.97 591.01 130.83
  C 593.58 132.30 595.86 134.13 597.87 136.34
  C 593.78 137.29 590.24 138.35 587.27 139.51
  C 583.74 140.88 581.30 142.76 579.94 145.14
  L 576.09 149.72
  L 559.78 138.91
  L 566.83 132.58
  L 572.52 129.22
  C 574.13 128.27 574.04 128.08 572.26 128.63
  C 570.67 129.12 568.97 129.93 567.16 131.05
  C 567.01 131.14 566.92 131.28 566.89 131.46
  C 566.88 131.56 566.89 131.64 566.94 131.71
  C 566.36 131.78 565.80 132.01 565.26 132.41
  C 565.00 131.10 564.46 130.17 563.63 129.63
  C 554.94 123.96 546.29 118.33 537.67 112.72
  C 535.89 111.57 534.15 110.34 532.45 109.05
  C 530.13 107.29 527.45 106.09 525.03 104.40
  C 520.12 100.98 514.92 97.62 509.41 94.31
  C 508.48 93.75 508.70 92.34 509.76 92.09
  L 528.55 87.66
  Z"
/>
<path fill="#335899" d="
  M 464.97 88.24
  L 475.49 96.10
  C 473.84 98.24 469.35 103.17 474.90 104.05
  C 482.17 105.20 489.00 104.30 495.40 101.35
  C 497.15 102.69 499.13 103.75 501.32 104.52
  C 502.97 105.10 504.24 105.74 505.12 106.45
  C 506.64 107.67 508.18 108.89 509.86 109.80
  C 515.35 112.81 520.14 115.80 524.23 118.77
  C 528.31 121.74 532.20 124.27 535.90 126.35
  C 537.28 127.13 538.42 128.34 539.74 129.14
  C 545.25 132.50 550.61 136.10 555.84 139.94
  C 550.55 145.29 546.79 150.16 544.56 154.57
  C 541.73 160.16 538.89 165.72 536.04 171.25
  C 535.22 172.85 533.94 173.83 532.20 174.19
  C 529.13 174.82 526.57 171.27 524.88 169.12
  C 520.39 163.38 516.25 157.68 512.46 152.03
  C 512.35 151.86 512.18 151.73 511.97 151.66
  C 512.01 151.46 512.03 151.25 512.03 151.04
  C 512.04 150.81 511.99 150.60 511.88 150.39
  C 509.39 145.44 507.56 141.08 506.37 137.32
  C 505.44 134.37 505.17 130.61 505.55 126.04
  C 505.90 121.75 501.23 119.93 497.73 119.64
  C 484.82 118.56 472.26 121.83 460.17 126.40
  C 455.93 128.01 452.28 130.02 449.23 132.45
  C 445.40 135.49 442.77 139.40 441.36 144.17
  C 435.89 139.54 434.58 133.80 437.43 126.95
  C 443.67 111.96 452.85 99.06 464.97 88.24
  Z"
/>
<path fill="#4878cc" d="
  M 70.17 127.92
  C 69.66 126.67 69.23 126.70 68.88 128.00
  L 58.92 164.74
  C 58.48 166.38 56.99 167.52 55.29 167.52
  L 44.00 167.52
  C 42.58 167.52 41.32 166.60 40.88 165.25
  C 35.57 148.94 29.91 131.69 23.89 113.50
  C 23.15 111.27 22.51 109.01 21.97 106.73
  C 21.86 106.28 22.04 106.06 22.49 106.06
  L 37.48 106.08
  C 37.90 106.08 38.27 106.33 38.42 106.71
  C 38.77 107.56 39.08 108.53 39.36 109.62
  C 42.29 121.09 45.45 133.03 48.84 145.44
  C 49.11 146.42 49.45 147.10 49.87 147.48
  C 50.67 148.20 51.21 148.04 51.49 146.99
  L 61.97 107.47
  C 62.19 106.64 62.94 106.06 63.79 106.07
  L 76.07 106.08
  C 76.97 106.08 77.76 106.69 78.00 107.56
  L 88.34 145.99
  C 89.25 149.41 90.16 149.41 91.05 145.98
  L 101.26 106.91
  C 101.41 106.35 101.77 106.07 102.35 106.07
  L 116.75 106.07
  C 117.22 106.07 117.56 106.53 117.41 106.98
  L 97.79 166.03
  C 97.50 166.91 96.67 167.51 95.73 167.51
  L 83.26 167.52
  C 82.05 167.52 81.00 166.72 80.68 165.56
  C 77.57 154.41 74.76 143.99 72.26 134.30
  C 71.68 132.05 70.98 129.92 70.17 127.92
  Z"
/>
<path fill="#4878cc" d="
  M 152.05 167.51
  L 138.21 167.52
  C 137.69 167.52 137.27 167.10 137.27 166.58
  L 137.35 106.99
  C 137.35 106.47 137.77 106.05 138.29 106.05
  L 151.89 106.07
  C 152.40 106.07 152.82 106.49 152.83 107.00
  L 152.98 130.34
  C 152.99 130.86 153.41 131.28 153.93 131.28
  L 177.73 131.23
  C 178.25 131.23 178.67 130.81 178.66 130.29
  L 178.54 107.03
  C 178.53 106.51 178.95 106.09 179.47 106.09
  L 193.54 106.06
  C 194.06 106.06 194.48 106.48 194.48 107.00
  L 194.42 166.58
  C 194.42 167.10 194.00 167.52 193.48 167.52
  L 179.38 167.52
  C 178.86 167.52 178.43 167.09 178.44 166.57
  L 178.66 144.47
  C 178.67 143.95 178.24 143.52 177.72 143.52
  L 153.96 143.57
  C 153.44 143.57 153.02 143.99 153.02 144.51
  L 152.99 166.57
  C 152.99 167.09 152.57 167.51 152.05 167.51
  Z"
/>
<path fill="#4878cc" d="
  M 261.61 155.95
  L 235.96 155.97
  C 235.54 155.97 235.16 156.23 235.01 156.63
  L 231.17 167.02
  C 231.06 167.32 230.77 167.52 230.45 167.52
  L 216.26 167.51
  C 215.92 167.51 215.62 167.32 215.47 167.01
  C 215.28 166.60 215.27 166.17 215.46 165.73
  C 223.80 146.66 232.22 127.16 240.73 107.24
  C 241.06 106.47 241.64 106.08 242.49 106.08
  L 256.76 106.06
  C 257.25 106.06 257.69 106.35 257.88 106.80
  L 283.00 165.58
  C 283.39 166.50 282.72 167.51 281.72 167.51
  L 267.08 167.53
  C 266.76 167.53 266.54 167.38 266.43 167.08
  L 262.55 156.61
  C 262.39 156.17 262.08 155.95 261.61 155.95
  Z
  M 240.25 142.87
  C 239.96 143.63 240.51 144.44 241.32 144.45
  L 256.41 144.50
  C 257.22 144.50 257.78 143.69 257.48 142.93
  L 250.01 123.68
  C 249.63 122.70 248.25 122.70 247.86 123.67
  L 240.25 142.87
  Z"
/>
<path fill="#4878cc" d="
  M 320.92 154.47
  L 345.43 154.50
  C 345.85 154.50 346.19 154.84 346.20 155.26
  L 346.29 166.74
  C 346.30 167.17 345.95 167.52 345.52 167.52
  L 305.38 167.52
  C 304.96 167.52 304.61 167.17 304.61 166.75
  L 304.69 106.82
  C 304.69 106.40 305.04 106.05 305.46 106.05
  L 319.36 106.12
  C 319.79 106.12 320.13 106.46 320.13 106.89
  L 320.15 153.70
  C 320.15 154.13 320.49 154.47 320.92 154.47
  Z"
/>
<path fill="#4878cc" d="
  M 383.76 119.29
  L 383.59 129.33
  C 383.58 129.90 384.03 130.36 384.60 130.37
  L 412.17 130.51
  C 412.73 130.52 413.19 130.99 413.18 131.55
  L 412.98 141.79
  C 412.97 142.34 412.52 142.78 411.97 142.79
  L 384.68 143.03
  C 384.13 143.04 383.68 143.49 383.67 144.04
  L 383.61 154.12
  C 383.60 154.68 384.06 155.14 384.62 155.14
  L 416.16 155.22
  C 416.71 155.22 417.17 155.67 417.18 156.22
  L 417.33 166.49
  C 417.34 167.06 416.88 167.53 416.31 167.53
  L 368.88 167.52
  C 368.32 167.52 367.86 167.06 367.86 166.50
  L 367.84 107.08
  C 367.84 106.52 368.30 106.06 368.86 106.06
  L 415.12 106.09
  C 415.68 106.09 416.14 106.55 416.14 107.11
  L 416.12 117.06
  C 416.12 117.62 415.67 118.07 415.11 118.08
  L 384.78 118.28
  C 384.22 118.29 383.77 118.73 383.76 119.29
  Z"
/>
<path fill="#e3ebee" d="
  M 511.97 151.66
  C 511.81 151.63 511.66 151.66 511.52 151.73
  C 511.43 151.78 511.34 151.89 511.27 152.06
  C 510.75 153.23 509.86 153.97 508.59 154.28
  C 496.91 157.10 486.19 158.12 476.42 157.34
  C 467.80 156.65 458.53 154.12 448.60 149.73
  C 447.39 149.20 446.21 148.45 445.05 147.46
  C 443.84 146.44 442.61 145.34 441.36 144.17
  C 442.77 139.40 445.40 135.49 449.23 132.45
  C 452.28 130.02 455.93 128.01 460.17 126.40
  C 472.26 121.83 484.82 118.56 497.73 119.64
  C 501.23 119.93 505.90 121.75 505.55 126.04
  C 505.17 130.61 505.44 134.37 506.37 137.32
  C 507.56 141.08 509.39 145.44 511.88 150.39
  C 511.99 150.60 512.04 150.81 512.03 151.04
  C 512.03 151.25 512.01 151.46 511.97 151.66
  Z"
/>
<path fill="#e3ebee" d="
  M 566.83 132.58
  C 567.14 132.01 567.18 131.72 566.94 131.71
  C 566.89 131.64 566.88 131.56 566.89 131.46
  C 566.92 131.28 567.01 131.14 567.16 131.05
  C 568.97 129.93 570.67 129.12 572.26 128.63
  C 574.04 128.08 574.13 128.27 572.52 129.22
  L 566.83 132.58
  Z"
/>
<path fill="#e3ebee" d="
  M 644.35 161.98
  C 645.58 167.82 646.95 173.55 647.77 179.35
  C 648.84 186.97 649.63 194.54 657.73 197.98
  C 660.65 199.21 664.56 199.47 669.45 198.74
  C 675.06 197.37 678.32 200.09 679.23 206.91
  C 679.33 210.70 678.79 214.26 677.60 217.57
  C 677.22 218.62 677.64 219.79 678.59 220.37
  C 679.61 221.00 680.52 221.80 681.33 222.75
  C 680.22 222.16 677.52 221.03 673.22 219.34
  C 671.07 218.49 669.54 217.30 668.63 215.75
  C 663.68 209.71 658.75 204.01 653.86 198.64
  C 652.23 196.85 650.54 194.90 648.58 193.51
  C 643.63 190.00 638.74 186.34 633.93 182.55
  C 620.55 171.99 605.92 163.37 590.41 156.84
  C 587.06 155.43 583.38 154.84 579.97 153.50
  C 579.65 153.37 579.50 153.14 579.52 152.79
  L 579.94 145.14
  C 581.30 142.76 583.74 140.88 587.27 139.51
  C 590.24 138.35 593.78 137.29 597.87 136.34
  C 602.30 136.17 606.84 136.63 611.50 137.70
  C 620.13 139.69 628.50 142.76 635.25 148.21
  C 639.83 151.90 642.86 156.49 644.35 161.98
  Z"
/>
<path fill="#335899" d="
  M 559.78 138.91
  L 576.09 149.72
  C 574.97 151.61 574.53 153.29 574.76 154.75
  C 575.96 162.36 577.75 170.09 580.12 177.94
  C 580.94 180.66 580.81 184.20 577.22 184.76
  C 576.49 184.87 575.85 184.72 575.28 184.31
  C 564.21 176.12 554.77 167.13 546.94 157.35
  C 546.78 157.14 546.75 156.86 546.87 156.63
  C 550.36 149.84 554.66 143.94 559.78 138.91
  Z"
/>
<path fill="#4878cc" d="
  M 663.48 173.79
  C 660.50 177.99 657.74 184.02 660.03 189.01
  C 660.63 190.33 662.09 192.04 664.41 194.14
  C 666.13 195.70 667.81 197.23 669.45 198.74
  C 664.56 199.47 660.65 199.21 657.73 197.98
  C 649.63 194.54 648.84 186.97 647.77 179.35
  C 646.95 173.55 645.58 167.82 644.35 161.98
  C 645.78 162.03 647.45 162.68 649.34 163.92
  C 655.79 168.14 660.50 171.43 663.48 173.79
  Z"
/>
<path fill="#2669bc" d="
  M 667.69 169.60
  C 671.18 172.01 674.57 174.49 677.86 177.06
  C 681.85 180.17 685.10 182.60 687.63 184.36
  C 690.98 186.68 694.32 189.01 697.65 191.35
  C 699.68 192.78 701.77 193.58 703.93 193.76
  C 704.29 202.68 703.62 211.57 701.92 220.43
  C 699.36 220.28 697.64 219.95 696.75 219.43
  C 693.29 217.39 687.45 213.22 679.23 206.91
  C 678.32 200.09 675.06 197.37 669.45 198.74
  C 667.81 197.23 666.13 195.70 664.41 194.14
  C 662.09 192.04 660.63 190.33 660.03 189.01
  C 657.74 184.02 660.50 177.99 663.48 173.79
  L 667.69 169.60
  Z"
/>
<path fill="#b7d5ef" d="
  M 323.49 232.29
  C 329.51 236.23 338.09 236.31 343.34 230.73
  C 343.60 230.45 343.73 230.12 343.73 229.73
  L 343.78 217.44
  C 343.79 216.74 344.36 216.18 345.06 216.19
  L 356.18 216.28
  C 356.76 216.29 357.23 216.76 357.24 217.34
  C 357.29 224.70 357.34 231.44 357.39 237.56
  C 357.40 238.77 356.84 239.73 355.71 240.44
  C 335.97 252.77 308.71 249.26 300.52 225.24
  C 297.87 217.49 298.82 209.76 303.36 202.07
  C 314.53 183.13 339.94 181.12 356.86 194.02
  C 357.35 194.40 357.43 195.10 357.04 195.58
  L 349.62 204.59
  C 349.35 204.91 348.88 204.97 348.54 204.73
  C 341.42 199.59 334.05 197.14 325.46 200.99
  C 311.86 207.08 311.77 224.60 323.49 232.29
  Z"
/>
<path fill="#b7d5ef" d="
  M 528.0482 217.0137
  C 527.87 234.05 513.03 247.71 494.9069 247.5183
  C 476.78 247.33 462.23 233.36 462.4118 216.3263
  C 462.59 199.29 477.43 185.63 495.5531 185.8217
  C 513.68 186.01 528.23 199.98 528.0482 217.0137
  Z
  M 512.95 216.67
  C 512.95 206.86 504.99 198.90 495.18 198.90
  C 485.37 198.90 477.41 206.86 477.41 216.67
  C 477.41 226.48 485.37 234.44 495.18 234.44
  C 504.99 234.44 512.95 226.48 512.95 216.67
  Z"
/>
<path fill="#b7d5ef" d="
  M 443.9387 216.9565
  C 443.79 233.98 428.97 247.66 410.8410 247.4988
  C 392.71 247.34 378.13 233.41 378.2813 216.3835
  C 378.43 199.36 393.25 185.68 411.3790 185.8412
  C 429.51 186.00 444.09 199.93 443.9387 216.9565
  Z
  M 410.4966 234.8300
  C 419.98 235.14 427.94 227.26 428.2706 217.2096
  C 428.60 207.16 421.19 198.76 411.7034 198.4500
  C 402.22 198.14 394.26 206.02 393.9294 216.0704
  C 393.60 226.12 401.01 234.52 410.4966 234.8300
  Z"
/>
<path fill="#b7d5ef" d="
  M 175.15 234.23
  L 198.77 234.28
  C 199.45 234.29 200.00 234.84 200.01 235.52
  L 200.03 245.75
  C 200.03 246.69 199.56 247.16 198.63 247.15
  L 160.27 247.08
  C 159.69 247.07 159.22 246.60 159.22 246.02
  L 159.21 187.27
  C 159.21 186.60 159.55 186.26 160.23 186.26
  L 173.19 186.23
  C 173.72 186.23 174.17 186.62 174.25 187.14
  C 174.43 188.29 174.52 189.45 174.52 190.62
  C 174.49 205.14 174.48 219.46 174.51 233.59
  C 174.51 233.94 174.80 234.23 175.15 234.23
  Z"
/>
<path fill="#b7d5ef" d="
  M 261.75 235.88
  L 236.97 235.88
  C 236.23 235.88 235.56 236.34 235.31 237.04
  L 232.00 246.05
  C 231.74 246.76 231.07 247.22 230.32 247.21
  L 217.33 247.00
  C 216.56 246.99 216.05 246.20 216.35 245.49
  L 241.21 187.73
  C 241.60 186.82 242.50 186.23 243.49 186.23
  L 256.52 186.24
  C 257.24 186.24 257.89 186.67 258.17 187.33
  L 282.52 245.06
  C 282.63 245.31 282.66 245.59 282.60 245.86
  C 282.45 246.64 282.07 247.04 281.46 247.06
  C 276.97 247.19 272.46 247.18 267.93 247.02
  C 267.12 246.99 266.57 246.59 266.30 245.83
  L 263.11 236.84
  C 262.91 236.26 262.36 235.88 261.75 235.88
  Z
  M 240.93 222.33
  C 240.56 223.30 241.27 224.34 242.31 224.35
  L 256.28 224.39
  C 257.32 224.40 258.03 223.36 257.66 222.39
  L 250.74 204.23
  C 250.26 202.96 248.47 202.96 247.98 204.22
  L 240.93 222.33
  Z"
/>
<path fill="#b7d5ef" d="
  M 591.97 221.31
  C 592.47 221.41 592.93 221.03 592.93 220.52
  L 593.14 187.78
  C 593.15 186.95 593.80 186.28 594.62 186.25
  C 598.49 186.13 602.47 186.28 606.58 186.70
  C 607.21 186.76 607.53 187.11 607.53 187.75
  L 607.53 245.75
  C 607.53 246.45 606.96 247.03 606.25 247.04
  L 595.78 247.18
  C 595.43 247.19 595.10 247.10 594.79 246.92
  C 593.57 246.19 592.44 245.11 591.41 243.70
  C 584.04 233.56 576.63 223.64 569.17 213.93
  C 567.04 211.15 565.96 211.51 565.93 215.02
  L 565.75 246.04
  C 565.74 246.73 565.40 247.08 564.71 247.08
  L 552.55 247.12
  C 551.96 247.12 551.48 246.64 551.48 246.05
  L 551.49 187.52
  C 551.49 186.69 551.90 186.28 552.73 186.27
  L 562.95 186.21
  C 564.16 186.20 565.14 186.68 565.87 187.65
  C 574.28 198.74 582.49 209.59 590.51 220.22
  C 590.98 220.85 591.47 221.21 591.97 221.31
  Z"
/>
<path fill="#335899" d="
  M 679.23 206.91
  C 687.45 213.22 693.29 217.39 696.75 219.43
  C 697.64 219.95 699.36 220.28 701.92 220.43
  C 700.79 226.99 698.63 233.17 695.43 238.97
  C 694.96 239.82 694.51 241.34 694.08 243.54
  C 692.09 245.74 690.02 247.76 687.85 249.61
  C 684.77 252.24 682.39 254.80 680.24 258.09
  C 680.07 258.34 679.77 258.46 679.48 258.39
  C 679.15 258.30 678.92 258.14 678.80 257.89
  C 677.19 254.60 675.15 251.57 672.70 248.82
  C 672.37 248.45 671.80 248.44 671.47 248.80
  C 670.57 249.76 669.85 250.99 669.31 252.50
  C 668.38 253.29 667.76 253.69 666.47 253.55
  C 646.70 251.42 632.33 241.20 623.38 222.88
  C 633.40 227.23 639.94 229.85 642.99 230.76
  C 649.20 232.61 655.53 233.77 662.00 234.23
  C 662.59 234.28 663.20 234.19 663.85 233.98
  C 664.29 234.16 664.64 234.29 665.15 234.20
  C 671.03 233.23 676.36 231.41 681.14 228.76
  C 682.28 228.13 683.18 227.19 683.84 225.92
  C 683.99 225.64 683.99 225.30 683.86 225.01
  C 683.31 223.75 682.46 223.00 681.33 222.75
  C 680.52 221.80 679.61 221.00 678.59 220.37
  C 677.64 219.79 677.22 218.62 677.60 217.57
  C 678.79 214.26 679.33 210.70 679.23 206.91
  Z"
/>
<path fill="#2669bc" d="
  M 668.63 215.75
  C 669.54 217.30 671.07 218.49 673.22 219.34
  C 677.52 221.03 680.22 222.16 681.33 222.75
  C 682.46 223.00 683.31 223.75 683.86 225.01
  C 683.99 225.30 683.99 225.64 683.84 225.92
  C 683.18 227.19 682.28 228.13 681.14 228.76
  C 676.36 231.41 671.03 233.23 665.15 234.20
  C 664.64 234.29 664.29 234.16 663.85 233.98
  C 661.86 229.59 659.27 226.56 656.08 224.89
  C 651.82 222.65 647.39 220.77 643.85 217.40
  C 643.06 216.65 642.27 214.61 641.50 211.30
  C 647.73 211.05 653.31 211.63 658.26 213.03
  C 663.33 214.46 666.78 215.36 668.63 215.75
  Z"
/>
<path fill="#6780a9" d="
  M 641.50 211.30
  C 642.27 214.61 643.06 216.65 643.85 217.40
  C 647.39 220.77 651.82 222.65 656.08 224.89
  C 659.27 226.56 661.86 229.59 663.85 233.98
  C 663.20 234.19 662.59 234.28 662.00 234.23
  C 655.53 233.77 649.20 232.61 642.99 230.76
  C 639.94 229.85 633.40 227.23 623.38 222.88
  C 627.11 216.07 633.15 212.21 641.50 211.30
  Z"
/>
<path fill="#6780a9" d="
  M 694.08 243.54
  C 694.53 247.48 694.90 251.21 695.19 254.74
  C 696.62 272.07 688.37 287.31 672.81 295.05
  C 672.48 295.21 672.15 295.23 671.80 295.12
  C 667.01 293.52 664.20 285.65 663.84 280.86
  C 663.17 271.88 665.96 261.72 669.77 253.27
  C 669.86 253.06 669.85 252.86 669.73 252.67
  C 669.62 252.49 669.48 252.43 669.31 252.50
  C 669.85 250.99 670.57 249.76 671.47 248.80
  C 671.80 248.44 672.37 248.45 672.70 248.82
  C 675.15 251.57 677.19 254.60 678.80 257.89
  C 678.92 258.14 679.15 258.30 679.48 258.39
  C 679.77 258.46 680.07 258.34 680.24 258.09
  C 682.39 254.80 684.77 252.24 687.85 249.61
  C 690.02 247.76 692.09 245.74 694.08 243.54
  Z"
/>
</svg>
